<svg width="33" height="27" viewBox="0 0 33 27" fill="none" xmlns="http://www.w3.org/2000/svg">
<path d="M7.77 15.22V26H2.625V0.939999H20.23V5.245H7.77V10.915H18.76V15.22H7.77ZM28.1247 7.45V26H23.2947V7.45H28.1247ZM25.6747 1.08C26.3047 1.08 26.8297 1.30167 27.2497 1.745C27.693 2.18833 27.9147 2.725 27.9147 3.355C27.9147 3.985 27.693 4.52167 27.2497 4.965C26.8297 5.385 26.3047 5.595 25.6747 5.595C25.0447 5.595 24.508 5.385 24.0647 4.965C23.6214 4.52167 23.3997 3.985 23.3997 3.355C23.3997 2.725 23.6214 2.18833 24.0647 1.745C24.508 1.30167 25.0447 1.08 25.6747 1.08Z" fill="#092189"/>
</svg>
