<svg width="236" height="50" viewBox="0 0 236 50" fill="none" xmlns="http://www.w3.org/2000/svg">
<path d="M13.32 27.52V46H4.5V3.04H34.68V10.42H13.32V20.14H32.16V27.52H13.32ZM48.2138 14.2V46H39.9338V14.2H48.2138ZM44.0137 3.28C45.0938 3.28 45.9938 3.66 46.7138 4.42C47.4738 5.18 47.8538 6.1 47.8538 7.18C47.8538 8.26 47.4738 9.18 46.7138 9.94C45.9938 10.66 45.0938 11.02 44.0137 11.02C42.9338 11.02 42.0138 10.66 41.2538 9.94C40.4938 9.18 40.1138 8.26 40.1138 7.18C40.1138 6.1 40.4938 5.18 41.2538 4.42C42.0138 3.66 42.9338 3.28 44.0137 3.28ZM84.66 3.04V46H76.38V42.46C74.46 45.26 71.56 46.66 67.68 46.66C63.48 46.66 60.1 44.9 57.54 41.38C55.34 38.38 54.24 34.64 54.24 30.16C54.24 24.84 55.64 20.64 58.44 17.56C60.88 14.88 63.94 13.54 67.62 13.54C71.5 13.54 74.42 15.02 76.38 17.98V3.04H84.66ZM69.48 20.32C67.4 20.32 65.72 21.22 64.44 23.02C63.16 24.82 62.52 27.18 62.52 30.1C62.52 32.98 63.14 35.32 64.38 37.12C65.66 38.88 67.36 39.76 69.48 39.76C71.6 39.76 73.28 38.88 74.52 37.12C75.8 35.36 76.44 33.02 76.44 30.1C76.44 27.14 75.8 24.78 74.52 23.02C73.24 21.22 71.56 20.32 69.48 20.32ZM120.091 32.26H98.7309C98.8509 34.82 99.2509 36.64 99.9309 37.72C101.091 39.48 102.911 40.36 105.391 40.36C108.471 40.36 110.531 39.08 111.571 36.52H119.731C118.811 39.64 117.011 42.12 114.331 43.96C111.691 45.76 108.591 46.66 105.031 46.66C100.191 46.66 96.4709 45.04 93.8709 41.8C91.5909 38.96 90.4509 35.22 90.4509 30.58C90.4509 24.94 91.9309 20.58 94.8909 17.5C97.4909 14.86 100.911 13.54 105.151 13.54C108.391 13.54 111.231 14.34 113.671 15.94C116.111 17.54 117.851 19.78 118.891 22.66C119.731 24.9 120.151 27.6 120.151 30.76C120.151 31.16 120.131 31.66 120.091 32.26ZM111.511 26.8C111.111 22.16 108.971 19.84 105.091 19.84C101.451 19.84 99.3709 22.16 98.8509 26.8H111.511ZM152.407 23.56H144.007C143.967 22.28 143.507 21.38 142.627 20.86C141.747 20.3 140.227 20.02 138.067 20.02C134.907 20.02 133.327 20.94 133.327 22.78C133.327 23.86 134.287 24.66 136.207 25.18L146.647 28.12C150.807 29.28 152.887 31.92 152.887 36.04C152.887 39.28 151.627 41.9 149.107 43.9C146.747 45.74 143.347 46.66 138.907 46.66C133.467 46.66 129.567 45.86 127.207 44.26C124.887 42.74 123.647 40.28 123.487 36.88H131.707C131.947 38.2 132.507 39.08 133.387 39.52C134.307 39.96 135.987 40.18 138.427 40.18C142.547 40.18 144.607 39.2 144.607 37.24C144.607 36.08 143.687 35.22 141.847 34.66L132.007 31.66C129.487 30.9 127.767 30.02 126.847 29.02C125.647 27.78 125.047 26.1 125.047 23.98C125.047 20.5 126.367 17.82 129.007 15.94C131.327 14.34 134.367 13.54 138.127 13.54C142.687 13.54 146.287 14.56 148.927 16.6C151.207 18.4 152.367 20.72 152.407 23.56ZM167.1 14.2V46H158.82V14.2H167.1ZM162.9 3.28C163.98 3.28 164.88 3.66 165.6 4.42C166.36 5.18 166.74 6.1 166.74 7.18C166.74 8.26 166.36 9.18 165.6 9.94C164.88 10.66 163.98 11.02 162.9 11.02C161.82 11.02 160.9 10.66 160.14 9.94C159.38 9.18 159 8.26 159 7.18C159 6.1 159.38 5.18 160.14 4.42C160.9 3.66 161.82 3.28 162.9 3.28ZM175.107 14.2H183.387V18.7C185.627 15.26 188.787 13.54 192.867 13.54C196.507 13.54 199.267 14.62 201.147 16.78C202.747 18.7 203.547 21.3 203.547 24.58V46H195.327V26.26C195.327 22.46 193.547 20.56 189.987 20.56C187.987 20.56 186.387 21.14 185.187 22.3C183.987 23.42 183.387 24.92 183.387 26.8V46H175.107V14.2ZM226.202 14.2V19.66H220.622V37.36C220.622 38.52 220.822 39.32 221.222 39.76C221.662 40.2 222.442 40.42 223.562 40.42C224.482 40.42 225.662 40.06 227.102 39.34C227.222 39.26 227.322 39.2 227.402 39.16L228.362 44.8C225.842 46.04 223.202 46.66 220.442 46.66C215.042 46.66 212.342 44.18 212.342 39.22V19.66H208.262V14.2H212.342V8.92L220.622 4.18V14.2H226.202Z" fill="#092189"/>
</svg>
